<svg xmlns="http://www.w3.org/2000/svg" version="1.1" xmlns:xlink="http://www.w3.org/1999/xlink" xmlns:svgjs="http://svgjs.dev/svgjs" width="1920" height="1080" preserveAspectRatio="none" viewBox="0 0 1920 1080"><g mask="url(&quot;#SvgjsMask1034&quot;)" fill="none"><path d="M0 -75L64.95 -37.5L64.95 37.5L0 75L-64.95 37.5L-64.95 -37.5zM64.95 37.5L129.91 75L129.91 150L64.95 187.5L0 150L0 75zM0 150L64.95 187.5L64.95 262.5L0 300L-64.95 262.5L-64.95 187.5zM64.95 262.5L129.91 300L129.91 375L64.95 412.5L0 375L0 300zM0 375L64.95 412.5L64.95 487.5L0 525L-64.95 487.5L-64.95 412.5zM64.95 487.5L129.91 525L129.91 600L64.95 637.5L0 600L0 525zM0 600L64.95 637.5L64.95 712.5L0 750L-64.95 712.5L-64.95 637.5zM64.95 712.5L129.91 750L129.91 825L64.95 862.5L0 825L0 750zM0 825L64.95 862.5L64.95 937.5L0 975L-64.95 937.5L-64.95 862.5zM64.95 937.5L129.91 975L129.91 1050L64.95 1087.5L0 1050L0 975zM0 1050L64.95 1087.5L64.95 1162.5L0 1200L-64.95 1162.5L-64.95 1087.5zM129.91 -75L194.86 -37.5L194.86 37.5L129.91 75L64.95 37.5L64.95 -37.5zM194.86 37.5L259.81 75L259.81 150L194.86 187.5L129.91 150L129.91 75zM129.91 150L194.86 187.5L194.86 262.5L129.91 300L64.95 262.5L64.95 187.5zM194.86 262.5L259.81 300L259.81 375L194.86 412.5L129.91 375L129.91 300zM129.91 375L194.86 412.5L194.86 487.5L129.91 525L64.95 487.5L64.95 412.5zM194.86 487.5L259.81 525L259.81 600L194.86 637.5L129.91 600L129.91 525zM129.91 600L194.86 637.5L194.86 712.5L129.91 750L64.95 712.5L64.95 637.5zM194.86 712.5L259.81 750L259.81 825L194.86 862.5L129.91 825L129.91 750zM129.91 825L194.86 862.5L194.86 937.5L129.91 975L64.95 937.5L64.95 862.5zM194.86 937.5L259.81 975L259.81 1050L194.86 1087.5L129.91 1050L129.91 975zM129.91 1050L194.86 1087.5L194.86 1162.5L129.91 1200L64.95 1162.5L64.95 1087.5zM259.81 -75L324.77 -37.5L324.77 37.5L259.81 75L194.86 37.5L194.86 -37.5zM324.77 37.5L389.72 75L389.72 150L324.77 187.5L259.81 150L259.81 75zM259.81 150L324.77 187.5L324.77 262.5L259.81 300L194.86 262.5L194.86 187.5zM324.77 262.5L389.72 300L389.72 375L324.77 412.5L259.81 375L259.81 300zM259.81 375L324.77 412.5L324.77 487.5L259.81 525L194.86 487.5L194.86 412.5zM324.77 487.5L389.72 525L389.72 600L324.77 637.5L259.81 600L259.81 525zM259.81 600L324.77 637.5L324.77 712.5L259.81 750L194.86 712.5L194.86 637.5zM324.77 712.5L389.72 750L389.72 825L324.77 862.5L259.81 825L259.81 750zM259.81 825L324.77 862.5L324.77 937.5L259.81 975L194.86 937.5L194.86 862.5zM324.77 937.5L389.72 975L389.72 1050L324.77 1087.5L259.81 1050L259.81 975zM259.81 1050L324.77 1087.5L324.77 1162.5L259.81 1200L194.86 1162.5L194.86 1087.5zM389.72 -75L454.68 -37.5L454.68 37.5L389.72 75L324.77 37.5L324.77 -37.5zM454.68 37.5L519.63 75L519.63 150L454.68 187.5L389.72 150L389.72 75zM389.72 150L454.68 187.5L454.68 262.5L389.72 300L324.77 262.5L324.77 187.5zM454.68 262.5L519.63 300L519.63 375L454.68 412.5L389.72 375L389.72 300zM389.72 375L454.68 412.5L454.68 487.5L389.72 525L324.77 487.5L324.77 412.5zM454.68 487.5L519.63 525L519.63 600L454.68 637.5L389.72 600L389.72 525zM389.72 600L454.68 637.5L454.68 712.5L389.72 750L324.77 712.5L324.77 637.5zM454.68 712.5L519.63 750L519.63 825L454.68 862.5L389.72 825L389.72 750zM389.72 825L454.68 862.5L454.68 937.5L389.72 975L324.77 937.5L324.77 862.5zM454.68 937.5L519.63 975L519.63 1050L454.68 1087.5L389.72 1050L389.72 975zM389.72 1050L454.68 1087.5L454.68 1162.5L389.72 1200L324.77 1162.5L324.77 1087.5zM519.63 -75L584.58 -37.5L584.58 37.5L519.63 75L454.68 37.5L454.68 -37.5zM584.58 37.5L649.54 75L649.54 150L584.58 187.5L519.63 150L519.63 75zM519.63 150L584.58 187.5L584.58 262.5L519.63 300L454.68 262.5L454.68 187.5zM584.58 262.5L649.54 300L649.54 375L584.58 412.5L519.63 375L519.63 300zM519.63 375L584.58 412.5L584.58 487.5L519.63 525L454.68 487.5L454.68 412.5zM584.58 487.5L649.54 525L649.54 600L584.58 637.5L519.63 600L519.63 525zM519.63 600L584.58 637.5L584.58 712.5L519.63 750L454.68 712.5L454.68 637.5zM584.58 712.5L649.54 750L649.54 825L584.58 862.5L519.63 825L519.63 750zM519.63 825L584.58 862.5L584.58 937.5L519.63 975L454.68 937.5L454.68 862.5zM584.58 937.5L649.54 975L649.54 1050L584.58 1087.5L519.63 1050L519.63 975zM519.63 1050L584.58 1087.5L584.58 1162.5L519.63 1200L454.68 1162.5L454.68 1087.5zM649.54 -75L714.49 -37.5L714.49 37.5L649.54 75L584.58 37.5L584.58 -37.5zM714.49 37.5L779.45 75L779.45 150L714.49 187.5L649.54 150L649.54 75zM649.54 150L714.49 187.5L714.49 262.5L649.54 300L584.58 262.5L584.58 187.5zM714.49 262.5L779.45 300L779.45 375L714.49 412.5L649.54 375L649.54 300zM649.54 375L714.49 412.5L714.49 487.5L649.54 525L584.58 487.5L584.58 412.5zM714.49 487.5L779.45 525L779.45 600L714.49 637.5L649.54 600L649.54 525zM649.54 600L714.49 637.5L714.49 712.5L649.54 750L584.58 712.5L584.58 637.5zM714.49 712.5L779.45 750L779.45 825L714.49 862.5L649.54 825L649.54 750zM649.54 825L714.49 862.5L714.49 937.5L649.54 975L584.58 937.5L584.58 862.5zM714.49 937.5L779.45 975L779.45 1050L714.49 1087.5L649.54 1050L649.54 975zM649.54 1050L714.49 1087.5L714.49 1162.5L649.54 1200L584.58 1162.5L584.58 1087.5zM779.44 -75L844.4 -37.5L844.4 37.5L779.44 75L714.49 37.5L714.49 -37.5zM844.4 37.5L909.35 75L909.35 150L844.4 187.5L779.44 150L779.44 75zM779.44 150L844.4 187.5L844.4 262.5L779.44 300L714.49 262.5L714.49 187.5zM844.4 262.5L909.35 300L909.35 375L844.4 412.5L779.44 375L779.44 300zM779.44 375L844.4 412.5L844.4 487.5L779.44 525L714.49 487.5L714.49 412.5zM844.4 487.5L909.35 525L909.35 600L844.4 637.5L779.44 600L779.44 525zM779.44 600L844.4 637.5L844.4 712.5L779.44 750L714.49 712.5L714.49 637.5zM844.4 712.5L909.35 750L909.35 825L844.4 862.5L779.44 825L779.44 750zM779.44 825L844.4 862.5L844.4 937.5L779.44 975L714.49 937.5L714.49 862.5zM844.4 937.5L909.35 975L909.35 1050L844.4 1087.5L779.44 1050L779.44 975zM779.44 1050L844.4 1087.5L844.4 1162.5L779.44 1200L714.49 1162.5L714.49 1087.5zM909.35 -75L974.31 -37.5L974.31 37.5L909.35 75L844.4 37.5L844.4 -37.5zM974.31 37.5L1039.26 75L1039.26 150L974.31 187.5L909.35 150L909.35 75zM909.35 150L974.31 187.5L974.31 262.5L909.35 300L844.4 262.5L844.4 187.5zM974.31 262.5L1039.26 300L1039.26 375L974.31 412.5L909.35 375L909.35 300zM909.35 375L974.31 412.5L974.31 487.5L909.35 525L844.4 487.5L844.4 412.5zM974.31 487.5L1039.26 525L1039.26 600L974.31 637.5L909.35 600L909.35 525zM909.35 600L974.31 637.5L974.31 712.5L909.35 750L844.4 712.5L844.4 637.5zM974.31 712.5L1039.26 750L1039.26 825L974.31 862.5L909.35 825L909.35 750zM909.35 825L974.31 862.5L974.31 937.5L909.35 975L844.4 937.5L844.4 862.5zM974.31 937.5L1039.26 975L1039.26 1050L974.31 1087.5L909.35 1050L909.35 975zM909.35 1050L974.31 1087.5L974.31 1162.5L909.35 1200L844.4 1162.5L844.4 1087.5zM1039.26 -75L1104.21 -37.5L1104.21 37.5L1039.26 75L974.31 37.5L974.31 -37.5zM1104.21 37.5L1169.17 75L1169.17 150L1104.21 187.5L1039.26 150L1039.26 75zM1039.26 150L1104.21 187.5L1104.21 262.5L1039.26 300L974.31 262.5L974.31 187.5zM1104.21 262.5L1169.17 300L1169.17 375L1104.21 412.5L1039.26 375L1039.26 300zM1039.26 375L1104.21 412.5L1104.21 487.5L1039.26 525L974.31 487.5L974.31 412.5zM1104.21 487.5L1169.17 525L1169.17 600L1104.21 637.5L1039.26 600L1039.26 525zM1039.26 600L1104.21 637.5L1104.21 712.5L1039.26 750L974.31 712.5L974.31 637.5zM1104.21 712.5L1169.17 750L1169.17 825L1104.21 862.5L1039.26 825L1039.26 750zM1039.26 825L1104.21 862.5L1104.21 937.5L1039.26 975L974.31 937.5L974.31 862.5zM1104.21 937.5L1169.17 975L1169.17 1050L1104.21 1087.5L1039.26 1050L1039.26 975zM1039.26 1050L1104.21 1087.5L1104.21 1162.5L1039.26 1200L974.31 1162.5L974.31 1087.5zM1169.17 -75L1234.12 -37.5L1234.12 37.5L1169.17 75L1104.21 37.5L1104.21 -37.5zM1234.12 37.5L1299.07 75L1299.07 150L1234.12 187.5L1169.17 150L1169.17 75zM1169.17 150L1234.12 187.5L1234.12 262.5L1169.17 300L1104.21 262.5L1104.21 187.5zM1234.12 262.5L1299.07 300L1299.07 375L1234.12 412.5L1169.17 375L1169.17 300zM1169.17 375L1234.12 412.5L1234.12 487.5L1169.17 525L1104.21 487.5L1104.21 412.5zM1234.12 487.5L1299.07 525L1299.07 600L1234.12 637.5L1169.17 600L1169.17 525zM1169.17 600L1234.12 637.5L1234.12 712.5L1169.17 750L1104.21 712.5L1104.21 637.5zM1234.12 712.5L1299.07 750L1299.07 825L1234.12 862.5L1169.17 825L1169.17 750zM1169.17 825L1234.12 862.5L1234.12 937.5L1169.17 975L1104.21 937.5L1104.21 862.5zM1234.12 937.5L1299.07 975L1299.07 1050L1234.12 1087.5L1169.17 1050L1169.17 975zM1169.17 1050L1234.12 1087.5L1234.12 1162.5L1169.17 1200L1104.21 1162.5L1104.21 1087.5zM1299.08 -75L1364.03 -37.5L1364.03 37.5L1299.08 75L1234.12 37.5L1234.12 -37.5zM1364.03 37.5L1428.98 75L1428.98 150L1364.03 187.5L1299.08 150L1299.08 75zM1299.08 150L1364.03 187.5L1364.03 262.5L1299.08 300L1234.12 262.5L1234.12 187.5zM1364.03 262.5L1428.98 300L1428.98 375L1364.03 412.5L1299.08 375L1299.08 300zM1299.08 375L1364.03 412.5L1364.03 487.5L1299.08 525L1234.12 487.5L1234.12 412.5zM1364.03 487.5L1428.98 525L1428.98 600L1364.03 637.5L1299.08 600L1299.08 525zM1299.08 600L1364.03 637.5L1364.03 712.5L1299.08 750L1234.12 712.5L1234.12 637.5zM1364.03 712.5L1428.98 750L1428.98 825L1364.03 862.5L1299.08 825L1299.08 750zM1299.08 825L1364.03 862.5L1364.03 937.5L1299.08 975L1234.12 937.5L1234.12 862.5zM1364.03 937.5L1428.98 975L1428.98 1050L1364.03 1087.5L1299.08 1050L1299.08 975zM1299.08 1050L1364.03 1087.5L1364.03 1162.5L1299.08 1200L1234.12 1162.5L1234.12 1087.5zM1428.98 -75L1493.94 -37.5L1493.94 37.5L1428.98 75L1364.03 37.5L1364.03 -37.5zM1493.94 37.5L1558.89 75L1558.89 150L1493.94 187.5L1428.98 150L1428.98 75zM1428.98 150L1493.94 187.5L1493.94 262.5L1428.98 300L1364.03 262.5L1364.03 187.5zM1493.94 262.5L1558.89 300L1558.89 375L1493.94 412.5L1428.98 375L1428.98 300zM1428.98 375L1493.94 412.5L1493.94 487.5L1428.98 525L1364.03 487.5L1364.03 412.5zM1493.94 487.5L1558.89 525L1558.89 600L1493.94 637.5L1428.98 600L1428.98 525zM1428.98 600L1493.94 637.5L1493.94 712.5L1428.98 750L1364.03 712.5L1364.03 637.5zM1493.94 712.5L1558.89 750L1558.89 825L1493.94 862.5L1428.98 825L1428.98 750zM1428.98 825L1493.94 862.5L1493.94 937.5L1428.98 975L1364.03 937.5L1364.03 862.5zM1493.94 937.5L1558.89 975L1558.89 1050L1493.94 1087.5L1428.98 1050L1428.98 975zM1428.98 1050L1493.94 1087.5L1493.94 1162.5L1428.98 1200L1364.03 1162.5L1364.03 1087.5zM1558.89 -75L1623.84 -37.5L1623.84 37.5L1558.89 75L1493.94 37.5L1493.94 -37.5zM1623.84 37.5L1688.8 75L1688.8 150L1623.84 187.5L1558.89 150L1558.89 75zM1558.89 150L1623.84 187.5L1623.84 262.5L1558.89 300L1493.94 262.5L1493.94 187.5zM1623.84 262.5L1688.8 300L1688.8 375L1623.84 412.5L1558.89 375L1558.89 300zM1558.89 375L1623.84 412.5L1623.84 487.5L1558.89 525L1493.94 487.5L1493.94 412.5zM1623.84 487.5L1688.8 525L1688.8 600L1623.84 637.5L1558.89 600L1558.89 525zM1558.89 600L1623.84 637.5L1623.84 712.5L1558.89 750L1493.94 712.5L1493.94 637.5zM1623.84 712.5L1688.8 750L1688.8 825L1623.84 862.5L1558.89 825L1558.89 750zM1558.89 825L1623.84 862.5L1623.84 937.5L1558.89 975L1493.94 937.5L1493.94 862.5zM1623.84 937.5L1688.8 975L1688.8 1050L1623.84 1087.5L1558.89 1050L1558.89 975zM1558.89 1050L1623.84 1087.5L1623.84 1162.5L1558.89 1200L1493.94 1162.5L1493.94 1087.5zM1688.8 -75L1753.75 -37.5L1753.75 37.5L1688.8 75L1623.84 37.5L1623.84 -37.5zM1753.75 37.5L1818.7 75L1818.7 150L1753.75 187.5L1688.8 150L1688.8 75zM1688.8 150L1753.75 187.5L1753.75 262.5L1688.8 300L1623.84 262.5L1623.84 187.5zM1753.75 262.5L1818.7 300L1818.7 375L1753.75 412.5L1688.8 375L1688.8 300zM1688.8 375L1753.75 412.5L1753.75 487.5L1688.8 525L1623.84 487.5L1623.84 412.5zM1753.75 487.5L1818.7 525L1818.7 600L1753.75 637.5L1688.8 600L1688.8 525zM1688.8 600L1753.75 637.5L1753.75 712.5L1688.8 750L1623.84 712.5L1623.84 637.5zM1753.75 712.5L1818.7 750L1818.7 825L1753.75 862.5L1688.8 825L1688.8 750zM1688.8 825L1753.75 862.5L1753.75 937.5L1688.8 975L1623.84 937.5L1623.84 862.5zM1753.75 937.5L1818.7 975L1818.7 1050L1753.75 1087.5L1688.8 1050L1688.8 975zM1688.8 1050L1753.75 1087.5L1753.75 1162.5L1688.8 1200L1623.84 1162.5L1623.84 1087.5zM1818.7 -75L1883.66 -37.5L1883.66 37.5L1818.7 75L1753.75 37.5L1753.75 -37.5zM1883.66 37.5L1948.61 75L1948.61 150L1883.66 187.5L1818.7 150L1818.7 75zM1818.7 150L1883.66 187.5L1883.66 262.5L1818.7 300L1753.75 262.5L1753.75 187.5zM1883.66 262.5L1948.61 300L1948.61 375L1883.66 412.5L1818.7 375L1818.7 300zM1818.7 375L1883.66 412.5L1883.66 487.5L1818.7 525L1753.75 487.5L1753.75 412.5zM1883.66 487.5L1948.61 525L1948.61 600L1883.66 637.5L1818.7 600L1818.7 525zM1818.7 600L1883.66 637.5L1883.66 712.5L1818.7 750L1753.75 712.5L1753.75 637.5zM1883.66 712.5L1948.61 750L1948.61 825L1883.66 862.5L1818.7 825L1818.7 750zM1818.7 825L1883.66 862.5L1883.66 937.5L1818.7 975L1753.75 937.5L1753.75 862.5zM1883.66 937.5L1948.61 975L1948.61 1050L1883.66 1087.5L1818.7 1050L1818.7 975zM1818.7 1050L1883.66 1087.5L1883.66 1162.5L1818.7 1200L1753.75 1162.5L1753.75 1087.5z" stroke="rgba(109, 8, 107, 1)" stroke-width="2"></path><path d="M79.43 179.72L122.74 204.72L122.74 254.72L79.43 279.72L36.13 254.72L36.13 204.72zM79.43 329.72L122.74 354.72L122.74 404.72L79.43 429.72L36.13 404.72L36.13 354.72zM36.13 404.72L79.43 429.72L79.43 479.72L36.13 504.72L-7.17 479.72L-7.17 429.72zM79.43 479.72L122.74 504.72L122.74 554.72L79.43 579.72L36.13 554.72L36.13 504.72zM36.13 554.72L79.43 579.72L79.43 629.72L36.13 654.72L-7.17 629.72L-7.17 579.72zM36.13 704.72L79.43 729.72L79.43 779.72L36.13 804.72L-7.17 779.72L-7.17 729.72zM36.13 1004.72L79.43 1029.72L79.43 1079.72L36.13 1104.72L-7.17 1079.72L-7.17 1029.72zM166.04 179.72L209.34 204.72L209.34 254.72L166.04 279.72L122.74 254.72L122.74 204.72zM122.74 554.72L166.04 579.72L166.04 629.72L122.74 654.72L79.43 629.72L79.43 579.72zM166.04 629.72L209.34 654.72L209.34 704.72L166.04 729.72L122.74 704.72L122.74 654.72zM122.74 854.72L166.04 879.72L166.04 929.72L122.74 954.72L79.43 929.72L79.43 879.72zM166.04 929.72L209.34 954.72L209.34 1004.72L166.04 1029.72L122.74 1004.72L122.74 954.72zM122.74 1004.72L166.04 1029.72L166.04 1079.72L122.74 1104.72L79.43 1079.72L79.43 1029.72zM209.34 554.72L252.64 579.72L252.64 629.72L209.34 654.72L166.04 629.72L166.04 579.72zM252.64 779.72L295.94 804.72L295.94 854.72L252.64 879.72L209.34 854.72L209.34 804.72zM295.94 104.72L339.25 129.72L339.25 179.72L295.94 204.72L252.64 179.72L252.64 129.72zM339.25 479.72L382.55 504.72L382.55 554.72L339.25 579.72L295.94 554.72L295.94 504.72zM295.94 704.72L339.25 729.72L339.25 779.72L295.94 804.72L252.64 779.72L252.64 729.72zM295.94 1004.72L339.25 1029.72L339.25 1079.72L295.94 1104.72L252.64 1079.72L252.64 1029.72zM382.55 254.72L425.85 279.72L425.85 329.72L382.55 354.72L339.25 329.72L339.25 279.72zM425.85 329.72L469.16 354.72L469.16 404.72L425.85 429.72L382.55 404.72L382.55 354.72zM382.55 404.72L425.85 429.72L425.85 479.72L382.55 504.72L339.25 479.72L339.25 429.72zM425.85 629.72L469.16 654.72L469.16 704.72L425.85 729.72L382.55 704.72L382.55 654.72zM382.55 704.72L425.85 729.72L425.85 779.72L382.55 804.72L339.25 779.72L339.25 729.72zM382.55 1004.72L425.85 1029.72L425.85 1079.72L382.55 1104.72L339.25 1079.72L339.25 1029.72zM512.46 29.72L555.76 54.72L555.76 104.72L512.46 129.72L469.16 104.72L469.16 54.72zM512.46 179.72L555.76 204.72L555.76 254.72L512.46 279.72L469.16 254.72L469.16 204.72zM469.16 254.72L512.46 279.72L512.46 329.72L469.16 354.72L425.85 329.72L425.85 279.72zM469.16 554.72L512.46 579.72L512.46 629.72L469.16 654.72L425.85 629.72L425.85 579.72zM469.16 704.72L512.46 729.72L512.46 779.72L469.16 804.72L425.85 779.72L425.85 729.72zM469.16 854.72L512.46 879.72L512.46 929.72L469.16 954.72L425.85 929.72L425.85 879.72zM555.76 104.72L599.06 129.72L599.06 179.72L555.76 204.72L512.46 179.72L512.46 129.72zM555.76 254.72L599.06 279.72L599.06 329.72L555.76 354.72L512.46 329.72L512.46 279.72zM555.76 404.72L599.06 429.72L599.06 479.72L555.76 504.72L512.46 479.72L512.46 429.72zM555.76 554.72L599.06 579.72L599.06 629.72L555.76 654.72L512.46 629.72L512.46 579.72zM555.76 704.72L599.06 729.72L599.06 779.72L555.76 804.72L512.46 779.72L512.46 729.72zM642.37 -45.28L685.67 -20.28L685.67 29.72L642.37 54.72L599.06 29.72L599.06 -20.28zM642.37 404.72L685.67 429.72L685.67 479.72L642.37 504.72L599.06 479.72L599.06 429.72zM685.67 629.72L728.97 654.72L728.97 704.72L685.67 729.72L642.37 704.72L642.37 654.72zM642.37 704.72L685.67 729.72L685.67 779.72L642.37 804.72L599.06 779.72L599.06 729.72zM728.97 -45.28L772.27 -20.28L772.27 29.72L728.97 54.72L685.67 29.72L685.67 -20.28zM772.27 179.72L815.58 204.72L815.58 254.72L772.27 279.72L728.97 254.72L728.97 204.72zM728.97 254.72L772.27 279.72L772.27 329.72L728.97 354.72L685.67 329.72L685.67 279.72zM772.27 329.72L815.58 354.72L815.58 404.72L772.27 429.72L728.97 404.72L728.97 354.72zM728.97 554.72L772.27 579.72L772.27 629.72L728.97 654.72L685.67 629.72L685.67 579.72zM728.97 704.72L772.27 729.72L772.27 779.72L728.97 804.72L685.67 779.72L685.67 729.72zM772.27 779.72L815.58 804.72L815.58 854.72L772.27 879.72L728.97 854.72L728.97 804.72zM728.97 1004.72L772.27 1029.72L772.27 1079.72L728.97 1104.72L685.67 1079.72L685.67 1029.72zM815.58 -45.28L858.88 -20.28L858.88 29.72L815.58 54.72L772.27 29.72L772.27 -20.28zM815.58 254.72L858.88 279.72L858.88 329.72L815.58 354.72L772.27 329.72L772.27 279.72zM858.88 479.72L902.18 504.72L902.18 554.72L858.88 579.72L815.58 554.72L815.58 504.72zM858.88 779.72L902.18 804.72L902.18 854.72L858.88 879.72L815.58 854.72L815.58 804.72zM815.58 1004.72L858.88 1029.72L858.88 1079.72L815.58 1104.72L772.27 1079.72L772.27 1029.72zM902.18 -45.28L945.48 -20.28L945.48 29.72L902.18 54.72L858.88 29.72L858.88 -20.28zM945.48 29.72L988.79 54.72L988.79 104.72L945.48 129.72L902.18 104.72L902.18 54.72zM945.48 329.72L988.79 354.72L988.79 404.72L945.48 429.72L902.18 404.72L902.18 354.72zM945.48 479.72L988.79 504.72L988.79 554.72L945.48 579.72L902.18 554.72L902.18 504.72zM945.48 629.72L988.79 654.72L988.79 704.72L945.48 729.72L902.18 704.72L902.18 654.72zM902.18 704.72L945.48 729.72L945.48 779.72L902.18 804.72L858.88 779.72L858.88 729.72zM945.48 779.72L988.79 804.72L988.79 854.72L945.48 879.72L902.18 854.72L902.18 804.72zM902.18 1004.72L945.48 1029.72L945.48 1079.72L902.18 1104.72L858.88 1079.72L858.88 1029.72zM988.79 254.72L1032.09 279.72L1032.09 329.72L988.79 354.72L945.48 329.72L945.48 279.72zM1032.09 329.72L1075.39 354.72L1075.39 404.72L1032.09 429.72L988.79 404.72L988.79 354.72zM1032.09 479.72L1075.39 504.72L1075.39 554.72L1032.09 579.72L988.79 554.72L988.79 504.72zM1032.09 629.72L1075.39 654.72L1075.39 704.72L1032.09 729.72L988.79 704.72L988.79 654.72zM988.79 704.72L1032.09 729.72L1032.09 779.72L988.79 804.72L945.48 779.72L945.48 729.72zM1032.09 779.72L1075.39 804.72L1075.39 854.72L1032.09 879.72L988.79 854.72L988.79 804.72zM988.79 854.72L1032.09 879.72L1032.09 929.72L988.79 954.72L945.48 929.72L945.48 879.72zM1118.69 179.72L1162 204.72L1162 254.72L1118.69 279.72L1075.39 254.72L1075.39 204.72zM1075.39 254.72L1118.69 279.72L1118.69 329.72L1075.39 354.72L1032.09 329.72L1032.09 279.72zM1118.69 479.72L1162 504.72L1162 554.72L1118.69 579.72L1075.39 554.72L1075.39 504.72zM1118.69 629.72L1162 654.72L1162 704.72L1118.69 729.72L1075.39 704.72L1075.39 654.72zM1075.39 1004.72L1118.69 1029.72L1118.69 1079.72L1075.39 1104.72L1032.09 1079.72L1032.09 1029.72zM1162 -45.28L1205.3 -20.28L1205.3 29.72L1162 54.72L1118.69 29.72L1118.69 -20.28zM1205.3 629.72L1248.6 654.72L1248.6 704.72L1205.3 729.72L1162 704.72L1162 654.72zM1162 704.72L1205.3 729.72L1205.3 779.72L1162 804.72L1118.69 779.72L1118.69 729.72zM1162 854.72L1205.3 879.72L1205.3 929.72L1162 954.72L1118.69 929.72L1118.69 879.72zM1162 1004.72L1205.3 1029.72L1205.3 1079.72L1162 1104.72L1118.69 1079.72L1118.69 1029.72zM1248.6 104.72L1291.9 129.72L1291.9 179.72L1248.6 204.72L1205.3 179.72L1205.3 129.72zM1291.9 179.72L1335.21 204.72L1335.21 254.72L1291.9 279.72L1248.6 254.72L1248.6 204.72zM1291.9 329.72L1335.21 354.72L1335.21 404.72L1291.9 429.72L1248.6 404.72L1248.6 354.72zM1248.6 404.72L1291.9 429.72L1291.9 479.72L1248.6 504.72L1205.3 479.72L1205.3 429.72zM1248.6 704.72L1291.9 729.72L1291.9 779.72L1248.6 804.72L1205.3 779.72L1205.3 729.72zM1248.6 854.72L1291.9 879.72L1291.9 929.72L1248.6 954.72L1205.3 929.72L1205.3 879.72zM1335.21 404.72L1378.51 429.72L1378.51 479.72L1335.21 504.72L1291.9 479.72L1291.9 429.72zM1335.21 554.72L1378.51 579.72L1378.51 629.72L1335.21 654.72L1291.9 629.72L1291.9 579.72zM1335.21 704.72L1378.51 729.72L1378.51 779.72L1335.21 804.72L1291.9 779.72L1291.9 729.72zM1335.21 1004.72L1378.51 1029.72L1378.51 1079.72L1335.21 1104.72L1291.9 1079.72L1291.9 1029.72zM1465.11 179.72L1508.42 204.72L1508.42 254.72L1465.11 279.72L1421.81 254.72L1421.81 204.72zM1421.81 554.72L1465.11 579.72L1465.11 629.72L1421.81 654.72L1378.51 629.72L1378.51 579.72zM1465.11 779.72L1508.42 804.72L1508.42 854.72L1465.11 879.72L1421.81 854.72L1421.81 804.72zM1421.81 854.72L1465.11 879.72L1465.11 929.72L1421.81 954.72L1378.51 929.72L1378.51 879.72zM1421.81 1004.72L1465.11 1029.72L1465.11 1079.72L1421.81 1104.72L1378.51 1079.72L1378.51 1029.72zM1551.72 329.72L1595.02 354.72L1595.02 404.72L1551.72 429.72L1508.42 404.72L1508.42 354.72zM1551.72 479.72L1595.02 504.72L1595.02 554.72L1551.72 579.72L1508.42 554.72L1508.42 504.72zM1551.72 779.72L1595.02 804.72L1595.02 854.72L1551.72 879.72L1508.42 854.72L1508.42 804.72zM1508.42 854.72L1551.72 879.72L1551.72 929.72L1508.42 954.72L1465.11 929.72L1465.11 879.72zM1508.42 1004.72L1551.72 1029.72L1551.72 1079.72L1508.42 1104.72L1465.11 1079.72L1465.11 1029.72zM1638.32 29.72L1681.63 54.72L1681.63 104.72L1638.32 129.72L1595.02 104.72L1595.02 54.72zM1595.02 404.72L1638.32 429.72L1638.32 479.72L1595.02 504.72L1551.72 479.72L1551.72 429.72zM1638.32 929.72L1681.63 954.72L1681.63 1004.72L1638.32 1029.72L1595.02 1004.72L1595.02 954.72zM1595.02 1004.72L1638.32 1029.72L1638.32 1079.72L1595.02 1104.72L1551.72 1079.72L1551.72 1029.72zM1681.63 104.72L1724.93 129.72L1724.93 179.72L1681.63 204.72L1638.32 179.72L1638.32 129.72zM1724.93 179.72L1768.23 204.72L1768.23 254.72L1724.93 279.72L1681.63 254.72L1681.63 204.72zM1681.63 254.72L1724.93 279.72L1724.93 329.72L1681.63 354.72L1638.32 329.72L1638.32 279.72zM1724.93 329.72L1768.23 354.72L1768.23 404.72L1724.93 429.72L1681.63 404.72L1681.63 354.72zM1681.63 854.72L1724.93 879.72L1724.93 929.72L1681.63 954.72L1638.32 929.72L1638.32 879.72zM1681.63 1004.72L1724.93 1029.72L1724.93 1079.72L1681.63 1104.72L1638.32 1079.72L1638.32 1029.72zM1811.53 179.72L1854.84 204.72L1854.84 254.72L1811.53 279.72L1768.23 254.72L1768.23 204.72zM1811.53 329.72L1854.84 354.72L1854.84 404.72L1811.53 429.72L1768.23 404.72L1768.23 354.72zM1768.23 404.72L1811.53 429.72L1811.53 479.72L1768.23 504.72L1724.93 479.72L1724.93 429.72zM1768.23 554.72L1811.53 579.72L1811.53 629.72L1768.23 654.72L1724.93 629.72L1724.93 579.72zM1811.53 629.72L1854.84 654.72L1854.84 704.72L1811.53 729.72L1768.23 704.72L1768.23 654.72zM1854.84 -45.28L1898.14 -20.28L1898.14 29.72L1854.84 54.72L1811.53 29.72L1811.53 -20.28zM1854.84 254.72L1898.14 279.72L1898.14 329.72L1854.84 354.72L1811.53 329.72L1811.53 279.72zM1898.14 479.72L1941.44 504.72L1941.44 554.72L1898.14 579.72L1854.84 554.72L1854.84 504.72zM1898.14 629.72L1941.44 654.72L1941.44 704.72L1898.14 729.72L1854.84 704.72L1854.84 654.72zM1854.84 854.72L1898.14 879.72L1898.14 929.72L1854.84 954.72L1811.53 929.72L1811.53 879.72zM1941.44 -45.28L1984.74 -20.28L1984.74 29.72L1941.44 54.72L1898.14 29.72L1898.14 -20.28zM1984.74 29.72L2028.05 54.72L2028.05 104.72L1984.74 129.72L1941.44 104.72L1941.44 54.72zM1941.44 104.72L1984.74 129.72L1984.74 179.72L1941.44 204.72L1898.14 179.72L1898.14 129.72zM1984.74 179.72L2028.05 204.72L2028.05 254.72L1984.74 279.72L1941.44 254.72L1941.44 204.72zM1941.44 554.72L1984.74 579.72L1984.74 629.72L1941.44 654.72L1898.14 629.72L1898.14 579.72zM1941.44 1004.72L1984.74 1029.72L1984.74 1079.72L1941.44 1104.72L1898.14 1079.72L1898.14 1029.72z" stroke="rgba(104, 6, 156, 0.93)" stroke-width="2"></path></g><defs><mask id="SvgjsMask1034"><rect width="1920" height="1080" fill="#ffffff"></rect></mask></defs></svg>